<?xml version="1.0" encoding="UTF-8"?>
<svg width="720px" height="720px" viewBox="0 0 720 720" version="1.1" xmlns="http://www.w3.org/2000/svg" xmlns:xlink="http://www.w3.org/1999/xlink">
    <!-- Generator: Sketch 55.2 (78181) - https://sketchapp.com -->
    <title>Data.gov - 720x720</title>
    <desc>Created with Sketch.</desc>
    <g id="Data.gov---720x720" stroke="none" stroke-width="1" fill="none" fill-rule="evenodd">
        <rect fill="#FFFFFF" x="0" y="0" width="720" height="720"></rect>
        <g id="Group" transform="translate(23.160839, 167.160839)" fill="#000000" fill-rule="nonzero">
            <polygon id="Shape" points="45.3356842 0.456324071 45.6563948 226.457517 74.1996354 226.457517 73.8789249 268.893712 0.436204554 268.893712 0.436204554 0.456324071"></polygon>
            <polygon id="Shape" points="129.522209 268.893712 84.3020184 268.893712 84.3020184 0.456324071 129.522209 0.456324071"></polygon>
            <path d="M140.907434,0.456324071 L209.218785,0.456324071 C227.338932,0.456324071 239.205223,9.88658968 239.205223,34.4377984 L239.205223,94.921571 C239.205223,112.969148 227.499287,121.261278 221.726497,123.049777 C228.78213,124.838276 242.733039,132.805224 242.733039,154.429799 L242.733039,228.246016 C242.733039,255.398677 231.347814,269.056303 208.898074,269.056303 L140.907434,269.056303 L140.907434,0.456324071 Z M186.127624,34.2752076 L186.127624,110.855468 L189.33473,110.855468 C192.862546,110.855468 194.626454,108.741788 194.626454,104.026655 L194.626454,40.7788391 C194.626454,36.0637063 193.985033,34.2752076 189.33473,34.2752076 L186.127624,34.2752076 Z M186.127624,144.023988 L186.127624,233.936693 L190.457217,233.936693 C195.10752,233.936693 195.748941,231.823013 195.748941,227.10788 L195.748941,151.340574 C195.748941,145.975078 194.626454,144.186579 190.457217,144.186579 L186.127624,144.186579 L186.127624,144.023988 Z" id="Shape"></path>
            <path d="M297.895257,268.893712 L252.675067,268.893712 L252.675067,0.456324071 L322.750326,0.456324071 C338.465144,0.456324071 350.812501,10.5369528 350.812501,32.6492998 L350.812501,95.8971157 C350.812501,114.269875 342.313671,121.58646 334.776973,124.838276 C342.313671,128.090091 351.453922,135.731858 351.453922,149.714666 L351.453922,256.211631 C351.453922,261.577127 352.095344,265.641897 353.538541,268.080759 L353.538541,269.218894 L308.959772,269.218894 C307.195864,266.617441 306.073377,263.040444 306.073377,258.00013 L306.073377,157.356433 C306.073377,153.454254 305.431956,151.177983 301.102363,151.177983 L297.574547,151.177983 L297.574547,268.893712 L297.895257,268.893712 Z M297.895257,112.643967 L301.423074,112.643967 C304.630179,112.643967 306.394087,110.530286 306.394087,106.465517 L306.394087,40.4536575 C306.394087,36.0637063 305.752666,34.2752076 301.743784,34.2752076 L297.895257,34.2752076 L297.895257,112.643967 L297.895257,112.643967 Z" id="Shape"></path>
            <path d="M417.199589,220.604249 L401.965837,220.604249 L399.400152,269.056303 L360.594174,269.056303 L382.562848,0.456324071 L439.488974,0.456324071 L463.381911,268.893712 L419.604918,268.893712 L417.199589,220.604249 Z M409.662891,79.1502647 L404.371166,181.257279 L415.11497,181.257279 L409.662891,79.1502647 Z" id="Shape"></path>
            <path d="M517.581997,268.893712 L472.361807,268.893712 L472.361807,0.456324071 L542.597422,0.456324071 C558.312239,0.456324071 570.659596,10.5369528 570.659596,32.6492998 L570.659596,95.8971157 C570.659596,114.269875 562.160766,121.58646 554.624068,124.838276 C562.160766,128.090091 571.301017,135.731858 571.301017,149.714666 L571.301017,256.211631 C571.301017,261.577127 571.942439,265.641897 573.385636,268.080759 L573.385636,269.218894 L528.806867,269.218894 C527.042959,266.617441 525.920472,263.040444 525.920472,258.00013 L525.920472,157.356433 C525.920472,153.454254 525.279051,151.177983 520.949458,151.177983 L517.421642,151.177983 L517.421642,268.893712 L517.581997,268.893712 Z M517.581997,112.643967 L521.109813,112.643967 C524.316919,112.643967 526.080827,110.530286 526.080827,106.465517 L526.080827,40.4536575 C526.080827,36.0637063 525.439406,34.2752076 521.430524,34.2752076 L517.581997,34.2752076 L517.581997,112.643967 L517.581997,112.643967 Z" id="Shape"></path>
            <polygon id="Shape" points="603.85314 163.209701 574.668478 0.456324071 619.567958 0.456324071 627.425367 93.2956631 635.282776 0.456324071 675.531952 0.456324071 648.592265 163.209701 648.592265 268.893712 603.692785 268.893712 603.692785 163.209701"></polygon>
        </g>
        <polygon id="Shape" fill="#000000" fill-rule="nonzero" points="68.4965234 167.607768 68.817234 392.157937 97.3604746 392.157937 97.039764 434.321673 23.5970437 434.321673 23.5970437 167.607768"></polygon>
        <polygon id="Shape" fill="#000000" fill-rule="nonzero" points="152.683048 434.321673 107.462858 434.321673 107.462858 167.607768 152.683048 167.607768"></polygon>
        <path d="M164.068273,167.607768 L232.379624,167.607768 C250.499771,167.607768 262.366062,176.977487 262.366062,201.371067 L262.366062,261.466508 C262.366062,279.398212 250.660127,287.637103 244.887336,289.414118 C251.942969,291.191134 265.893879,299.106931 265.893879,320.592667 L265.893879,393.934952 C265.893879,420.913282 254.508653,434.48322 232.058914,434.48322 L164.068273,434.48322 L164.068273,167.607768 Z M209.288463,201.20952 L209.288463,277.298102 L212.495569,277.298102 C216.023385,277.298102 217.787293,275.197993 217.787293,270.513133 L217.787293,207.671395 C217.787293,202.986536 217.145872,201.20952 212.495569,201.20952 L209.288463,201.20952 Z M209.288463,310.253666 L209.288463,399.589093 L213.618056,399.589093 C218.268359,399.589093 218.90978,397.488984 218.90978,392.804124 L218.90978,317.523276 C218.90978,312.192229 217.787293,310.415213 213.618056,310.415213 L209.288463,310.415213 L209.288463,310.253666 Z" id="Shape" fill="#000000" fill-rule="nonzero"></path>
        <path d="M321.056097,434.321673 L275.835906,434.321673 L275.835906,167.607768 L345.911166,167.607768 C361.625983,167.607768 373.97334,177.623675 373.97334,199.594051 L373.97334,262.435789 C373.97334,280.690587 365.47451,287.960197 357.937812,291.191134 C365.47451,294.422072 374.614762,302.014775 374.614762,315.907807 L374.614762,421.721016 C374.614762,427.052063 375.256183,431.090736 376.69938,433.513939 L376.69938,434.644767 L332.120611,434.644767 C330.356703,432.060017 329.234216,428.505985 329.234216,423.498032 L329.234216,323.500511 C329.234216,319.623386 328.592795,317.361729 324.263202,317.361729 L320.735386,317.361729 L320.735386,434.321673 L321.056097,434.321673 Z M321.056097,279.075118 L324.583913,279.075118 C327.791018,279.075118 329.554927,276.975008 329.554927,272.936336 L329.554927,207.348302 C329.554927,202.986536 328.913505,201.20952 324.904623,201.20952 L321.056097,201.20952 L321.056097,279.075118 L321.056097,279.075118 Z" id="Shape" fill="#000000" fill-rule="nonzero"></path>
        <path d="M440.360428,386.342249 L425.126676,386.342249 L422.560992,434.48322 L383.755013,434.48322 L405.723687,167.607768 L462.649813,167.607768 L486.54275,434.321673 L442.765757,434.321673 L440.360428,386.342249 Z M432.82373,245.79646 L427.532005,347.247903 L438.275809,347.247903 L432.82373,245.79646 Z" id="Shape" fill="#000000" fill-rule="nonzero"></path>
        <path d="M540.742836,434.321673 L495.522646,434.321673 L495.522646,167.607768 L565.758261,167.607768 C581.473079,167.607768 593.820435,177.623675 593.820435,199.594051 L593.820435,262.435789 C593.820435,280.690587 585.321605,287.960197 577.784907,291.191134 C585.321605,294.422072 594.461857,302.014775 594.461857,315.907807 L594.461857,421.721016 C594.461857,427.052063 595.103278,431.090736 596.546475,433.513939 L596.546475,434.644767 L551.967706,434.644767 C550.203798,432.060017 549.081311,428.505985 549.081311,423.498032 L549.081311,323.500511 C549.081311,319.623386 548.43989,317.361729 544.110297,317.361729 L540.582481,317.361729 L540.582481,434.321673 L540.742836,434.321673 Z M540.742836,279.075118 L544.270653,279.075118 C547.477758,279.075118 549.241666,276.975008 549.241666,272.936336 L549.241666,207.348302 C549.241666,202.986536 548.600245,201.20952 544.591363,201.20952 L540.742836,201.20952 L540.742836,279.075118 L540.742836,279.075118 Z" id="Shape" fill="#000000" fill-rule="nonzero"></path>
        <polygon id="Shape" fill="#000000" fill-rule="nonzero" points="627.013979 329.316199 597.829318 167.607768 642.728797 167.607768 650.586206 259.851039 658.443615 167.607768 698.692792 167.607768 671.753104 329.316199 671.753104 434.321673 626.853624 434.321673 626.853624 329.316199"></polygon>
        <g id="Group" transform="translate(271.711530, 454.714292)" fill="#FC4C02" fill-rule="nonzero">
            <polygon id="Shape" points="1.55869155 44.5492282 1.55869155 0.608475831 12.9439167 0.608475831 12.9439167 33.5640401 31.2244192 33.5640401 31.2244192 44.5492282 1.55869155 44.5492282"></polygon>
            <polygon id="Shape" points="36.0350777 44.5492282 36.0350777 0.608475831 47.4203029 0.608475831 47.4203029 44.5492282"></polygon>
            <path d="M53.9948696,44.5492282 L53.9948696,0.608475831 L70.9925297,0.608475831 C82.8588208,0.608475831 87.9901899,4.64714792 87.9901899,12.0783046 C87.9901899,17.2478049 86.0659265,20.3171957 82.6984655,22.0942114 C86.7073476,23.7096802 89.1126769,26.6175241 89.1126769,31.9485713 C89.1126769,40.1874624 83.9813078,44.7107751 72.9167932,44.7107751 L53.9948696,44.7107751 L53.9948696,44.5492282 Z M64.8990289,9.33200755 L64.8990289,17.7324455 L71.4735956,17.7324455 C75.3221224,17.7324455 77.2463858,16.4400704 77.2463858,13.3706796 C77.2463858,10.6243826 75.642833,9.33200755 71.4735956,9.33200755 L64.8990289,9.33200755 Z M64.8990289,26.1328835 L64.8990289,34.8564152 L70.8321745,34.8564152 C76.1238988,34.8564152 77.7274517,33.4024932 77.7274517,30.4946493 C77.7274517,27.5868054 75.9635436,26.1328835 70.8321745,26.1328835 L64.8990289,26.1328835 L64.8990289,26.1328835 Z" id="Shape"></path>
            <path d="M104.346429,29.6869149 L104.346429,44.3876813 L93.4422696,44.3876813 L93.4422696,0.446928947 L111.081351,0.446928947 C123.428708,0.446928947 128.239366,5.939523 128.239366,14.1784141 C128.239366,19.832555 125.994392,23.2250396 121.98551,25.1636022 C125.513326,26.6175241 127.277235,29.6869149 127.277235,35.179509 L127.277235,42.126025 C127.277235,43.2568531 127.597945,44.0645876 128.239366,44.5492282 L116.854141,44.5492282 C116.21272,44.0645876 115.892009,43.0953063 115.892009,41.9644781 L115.892009,35.5026027 C115.892009,31.1408369 114.288457,29.8484618 109.798509,29.8484618 L104.346429,29.8484618 L104.346429,29.6869149 Z M104.346429,9.97819509 L104.346429,20.1556488 L110.76064,20.1556488 C114.769522,20.1556488 116.854141,18.2170862 116.854141,14.9861485 C116.854141,11.9167577 115.090233,9.97819509 110.76064,9.97819509 L104.346429,9.97819509 L104.346429,9.97819509 Z" id="Shape"></path>
            <path d="M158.065449,36.7949778 L143.473118,36.7949778 L141.067789,44.5492282 L129.842919,44.5492282 L145.076671,0.608475831 L156.461896,0.608475831 L171.856004,44.5492282 L160.631134,44.5492282 L158.065449,36.7949778 Z M150.689106,13.3706796 L146.359513,27.7483523 L155.179054,27.7483523 L150.689106,13.3706796 Z" id="Shape"></path>
            <path d="M185.806913,29.6869149 L185.806913,44.3876813 L174.902754,44.3876813 L174.902754,0.446928947 L192.541835,0.446928947 C204.889192,0.446928947 209.699851,5.939523 209.699851,14.1784141 C209.699851,19.832555 207.454877,23.2250396 203.445995,25.1636022 C206.973811,26.6175241 208.737719,29.6869149 208.737719,35.179509 L208.737719,42.126025 C208.737719,43.2568531 209.05843,44.0645876 209.699851,44.5492282 L198.314626,44.5492282 C197.673205,44.0645876 197.352494,43.0953063 197.352494,41.9644781 L197.352494,35.5026027 C197.352494,31.1408369 195.748941,29.8484618 191.258993,29.8484618 L185.806913,29.8484618 L185.806913,29.6869149 Z M185.806913,9.97819509 L185.806913,20.1556488 L192.221125,20.1556488 C196.230007,20.1556488 198.314626,18.2170862 198.314626,14.9861485 C198.314626,11.9167577 196.550718,9.97819509 192.221125,9.97819509 L185.806913,9.97819509 L185.806913,9.97819509 Z" id="Shape"></path>
            <polygon id="Shape" points="224.612892 44.5492282 224.612892 27.4252585 211.143048 0.608475831 223.009339 0.608475831 230.546038 16.4400704 238.403447 0.608475831 250.109383 0.608475831 236.158473 27.7483523 236.158473 44.7107751 224.612892 44.7107751"></polygon>
            <path d="M0.436204554,76.6970581 L0.436204554,72.0121985 C0.436204554,58.2807133 7.97290293,51.3341973 19.3581281,51.3341973 C30.4226428,51.3341973 38.2800517,58.1191665 38.2800517,72.0121985 L38.2800517,76.6970581 C38.2800517,90.5900901 30.582998,97.2135123 19.3581281,97.2135123 C7.33148179,97.0519654 0.436204554,90.5900901 0.436204554,76.6970581 Z M26.5741159,76.0508706 L26.5741159,72.4968391 C26.5741159,65.0656825 24.3291419,61.3501041 19.3581281,61.3501041 C14.226759,61.3501041 12.1421403,65.2272293 12.1421403,72.3352922 L12.1421403,75.8893237 C12.1421403,83.1589334 14.226759,86.8745118 19.3581281,86.8745118 C24.3291419,87.0360586 26.5741159,83.4820272 26.5741159,76.0508706 Z" id="Shape"></path>
            <polygon id="Shape" points="54.3155802 80.7357302 54.3155802 96.244231 43.4114208 96.244231 43.4114208 52.3034786 72.9167932 52.3034786 72.9167932 62.3193854 54.3155802 62.3193854 54.3155802 70.8813703 72.1150167 70.8813703 72.1150167 80.8972771 54.3155802 80.8972771"></polygon>
            <path d="M88.7919663,77.1816987 L88.7919663,71.6891047 C88.7919663,58.1191665 96.1683094,51.3341973 107.874245,51.3341973 C119.25947,51.3341973 125.994392,56.9883383 126.635813,68.458167 L126.635813,69.7505421 L114.929878,69.7505421 L114.929878,69.1043545 C114.609167,63.9348543 112.684904,61.3501041 108.0346,61.3501041 C102.903231,61.3501041 100.658257,64.9041356 100.658257,72.3352922 L100.658257,76.2124174 C100.658257,83.3204803 103.063587,86.7129649 108.0346,86.7129649 C112.684904,86.7129649 114.609167,83.9666679 115.090233,78.6356207 L115.090233,77.8278863 L126.956524,77.8278863 L126.956524,78.9587145 C126.475458,91.3978245 119.740536,97.0519654 107.71389,97.0519654 C95.366533,97.0519654 88.7919663,90.751637 88.7919663,77.1816987 Z" id="Shape"></path>
            <path d="M130.16363,76.6970581 L130.16363,72.0121985 C130.16363,58.2807133 137.700328,51.3341973 149.085553,51.3341973 C160.150068,51.3341973 168.007477,58.1191665 168.007477,72.0121985 L168.007477,76.6970581 C168.007477,90.5900901 160.310423,97.2135123 149.085553,97.2135123 C137.058907,97.0519654 130.16363,90.5900901 130.16363,76.6970581 Z M156.301541,76.0508706 L156.301541,72.4968391 C156.301541,65.0656825 154.056567,61.3501041 149.085553,61.3501041 C143.954184,61.3501041 141.869566,65.2272293 141.869566,72.3352922 L141.869566,75.8893237 C141.869566,83.1589334 143.954184,86.8745118 149.085553,86.8745118 C154.056567,87.0360586 156.301541,83.4820272 156.301541,76.0508706 Z" id="Shape"></path>
            <polygon id="Shape" points="183.561939 69.7505421 183.561939 96.0826841 173.138846 96.0826841 173.138846 52.1419318 183.561939 52.1419318 199.597468 78.15098 199.597468 52.1419318 210.020561 52.1419318 210.020561 96.0826841 199.918179 96.0826841"></polygon>
            <path d="M242.251974,86.0667773 C241.289842,92.2055589 237.762026,97.2135123 230.064972,97.2135123 C219.962589,97.2135123 215.312286,91.0747307 215.312286,77.0201519 L215.312286,71.6891047 C215.312286,57.9576196 222.688629,51.3341973 234.55492,51.3341973 C245.940145,51.3341973 252.033646,57.1498852 252.194001,67.9735264 L252.194001,68.2966201 L240.808776,68.2966201 L240.808776,68.2966201 C240.648421,63.9348543 238.884513,61.3501041 234.234209,61.3501041 C228.942485,61.3501041 226.697511,64.7425887 226.697511,72.1737453 L226.697511,76.5355112 C226.697511,84.6128554 228.942485,87.3591524 234.073854,87.3591524 C238.403447,87.3591524 240.648421,84.2897616 240.969131,80.4126364 L233.272078,80.4126364 L233.272078,72.8199329 L252.033646,72.8199329 L252.033646,96.4057779 L243.214105,96.4057779 L242.251974,86.0667773 Z" id="Shape"></path>
            <path d="M268.870951,81.3819177 L268.870951,96.0826841 L257.966792,96.0826841 L257.966792,52.1419318 L275.605873,52.1419318 C287.95323,52.1419318 292.763888,57.6345258 292.763888,65.8734169 C292.763888,71.5275578 290.518914,74.9200424 286.510032,76.858605 C290.037848,78.3125269 291.801757,81.3819177 291.801757,86.8745118 L291.801757,93.8210278 C291.801757,94.951856 292.122467,95.7595904 292.763888,96.244231 L281.218308,96.244231 C280.576887,95.7595904 280.256176,94.7903091 280.256176,93.6594809 L280.256176,87.1976055 C280.256176,82.8358397 278.652623,81.5434646 274.162675,81.5434646 L268.870951,81.5434646 L268.870951,81.3819177 Z M268.870951,61.6731979 L268.870951,71.8506516 L275.285162,71.8506516 C279.294044,71.8506516 281.378663,69.912089 281.378663,66.6811513 C281.378663,63.6117605 279.614755,61.6731979 275.285162,61.6731979 L268.870951,61.6731979 L268.870951,61.6731979 Z" id="Shape"></path>
            <polygon id="Shape" points="329.004183 96.244231 297.734902 96.244231 297.734902 52.3034786 328.362761 52.3034786 328.362761 61.8347448 308.639061 61.8347448 308.639061 69.2659014 326.438498 69.2659014 326.438498 78.9587145 308.639061 78.9587145 308.639061 86.3898711 329.004183 86.3898711"></polygon>
            <path d="M331.569867,81.0588239 L331.569867,81.0588239 L343.275803,81.0588239 L343.275803,81.2203708 C343.275803,85.4205898 345.360422,87.6822462 350.17108,87.6822462 C354.179962,87.6822462 355.94387,85.7436836 355.94387,83.3204803 C355.94387,79.7664489 351.453922,79.1202613 346.482909,77.9894332 C339.908342,76.5355112 332.531999,74.4354017 332.531999,64.9041356 C332.531999,57.1498852 338.144434,51.4957442 349.208948,51.4957442 C360.433818,51.4957442 366.206609,56.6652445 366.206609,65.8734169 L366.206609,65.8734169 L354.981739,65.8734169 L354.981739,65.8734169 C354.821383,62.1578385 353.057475,60.5423697 348.888238,60.5423697 C345.039711,60.5423697 343.596513,62.3193854 343.596513,64.5810418 C343.596513,67.8119795 347.765751,68.458167 352.736765,69.5889952 C359.311331,71.0429172 366.84803,73.3045735 367.008385,82.9973866 C367.008385,91.5593714 361.075239,97.3750592 349.690014,97.3750592 C336.22017,97.0519654 331.730222,91.3978245 331.569867,81.0588239 Z" id="Shape"></path>
            <path d="M368.932648,81.0588239 L368.932648,81.0588239 L380.638584,81.0588239 L380.638584,81.2203708 C380.638584,85.4205898 382.723203,87.6822462 387.533861,87.6822462 C391.542744,87.6822462 393.306652,85.7436836 393.306652,83.3204803 C393.306652,79.7664489 388.816704,79.1202613 383.84569,77.9894332 C377.271123,76.5355112 369.89478,74.4354017 369.89478,64.9041356 C369.89478,57.1498852 375.507215,51.4957442 386.57173,51.4957442 C397.7966,51.4957442 403.56939,56.6652445 403.56939,65.8734169 L403.56939,65.8734169 L392.34452,65.8734169 L392.34452,65.8734169 C392.184165,62.1578385 390.420257,60.5423697 386.251019,60.5423697 C382.402492,60.5423697 380.959295,62.3193854 380.959295,64.5810418 C380.959295,67.8119795 385.128532,68.458167 390.099546,69.5889952 C396.674113,71.0429172 404.210811,73.3045735 404.371166,82.9973866 C404.371166,91.5593714 398.438021,97.3750592 387.052796,97.3750592 C373.582952,97.0519654 369.093004,91.3978245 368.932648,81.0588239 Z" id="Shape"></path>
        </g>
    </g>
</svg>